<svg width="1080" height="1036" viewBox="0 0 1080 1036" fill="none" xmlns="http://www.w3.org/2000/svg">
<path d="M636.295 606.276L863.327 954.883C876.698 946.294 889.537 936.82 902.022 926.991C815.335 793.817 916.455 618.584 1075.13 627.085C1077.43 611.324 1079.2 595.474 1079.91 579.624L664.541 557.31L636.295 606.276Z" fill="#FF4A2E"></path>
<path d="M902.111 109.177C889.537 99.3488 876.786 89.8744 863.416 81.2854L636.383 429.892L664.629 478.858L1080 456.545C1079.29 440.695 1077.52 424.845 1075.22 409.084C916.544 417.584 815.335 242.351 902.111 109.177Z" fill="#FF4A2E"></path>
<path d="M511.62 645.502C511.62 645.502 332.757 997.74 323.194 1016.42C337.361 1023.68 351.883 1030.06 366.67 1035.99C438.658 894.317 640.987 894.317 712.975 1035.99C727.762 1030.06 742.372 1023.68 756.451 1016.42L568.024 645.502H511.532H511.62Z" fill="#FF4A2E"></path>
<path d="M568.379 390.489L756.805 19.5687C742.638 12.3079 728.116 5.9326 713.329 0C641.341 141.674 439.013 141.674 367.025 0C352.237 5.9326 337.627 12.3079 323.548 19.5687L511.975 390.489H568.467H568.379Z" fill="#FF4A2E"></path>
<path d="M443.794 429.715L216.761 81.1082C203.391 89.6971 190.552 99.1716 178.067 109C264.754 242.174 163.634 417.407 4.95875 408.907C2.65654 424.668 0.885616 440.518 0.177246 456.367L415.548 478.681L443.794 429.715Z" fill="#FF4A2E"></path>
<path d="M415.371 557.222L0 579.447C0.70837 595.297 2.4793 611.146 4.7815 626.908C163.456 618.407 264.665 793.64 177.889 926.814C190.463 936.642 203.214 946.117 216.584 954.706L443.617 606.099L415.371 557.133V557.222Z" fill="#FF4A2E"></path>
</svg>
