<svg width="6298" height="1035" viewBox="0 0 6298 1035" fill="none" xmlns="http://www.w3.org/2000/svg">
<g clip-path="url(#clip0_513_141)">
<path d="M511.131 644.885C511.131 644.885 332.438 996.785 322.885 1015.45C337.038 1022.7 351.546 1029.07 366.319 1035C438.238 893.462 640.373 893.462 712.292 1035C727.065 1029.07 741.662 1022.7 755.727 1015.45L567.481 644.885H511.042H511.131Z" fill="#FF4A2E"></path>
<path d="M635.686 605.696L862.501 953.969C875.859 945.388 888.686 935.923 901.159 926.103C814.555 793.057 915.578 617.992 1074.1 626.484C1076.4 610.738 1078.17 594.903 1078.88 579.069L663.905 556.776L635.686 605.696Z" fill="#FF4A2E"></path>
<path d="M901.247 109.072C888.686 99.2532 875.947 89.7878 862.59 81.207L635.774 429.48L663.993 478.399L1078.97 456.107C1078.26 440.272 1076.49 424.438 1074.19 408.692C915.666 417.184 814.555 242.119 901.247 109.072Z" fill="#FF4A2E"></path>
<path d="M567.835 390.115L756.081 19.55C741.927 12.2962 727.42 5.92692 712.646 0C640.727 141.538 438.593 141.538 366.673 0C351.9 5.92692 337.304 12.2962 323.239 19.55L511.485 390.115H567.923H567.835Z" fill="#FF4A2E"></path>
<path d="M443.369 429.303L216.554 81.03C203.196 89.6108 190.369 99.0762 177.896 108.895C264.5 241.942 163.477 417.007 4.95399 408.515C2.65399 424.261 0.884755 440.095 0.177063 455.93L415.15 478.222L443.369 429.303Z" fill="#FF4A2E"></path>
<path d="M414.973 556.688L-6.10352e-05 578.892C0.707631 594.726 2.47686 610.561 4.77686 626.307C163.3 617.815 264.411 792.88 177.719 925.926C190.281 935.746 203.019 945.211 216.377 953.792L443.192 605.519L414.973 556.599V556.688Z" fill="#FF4A2E"></path>
<path d="M2636.06 335.8V216.642H2050.01V348.185H2417.65L2027.27 729.454V845.781H2534.42C2570.6 845.781 2604.31 826.762 2622.44 796.065L2671.1 713.708H2252.05L2635.89 335.889L2636.06 335.8Z" fill="#FF4A2E"></path>
<path d="M3185.76 503.7C3185.76 662.311 3138.97 727.065 3024.15 727.065C2940.99 727.065 2898.88 677.173 2898.88 578.892V216.554H2737.18L2737.97 610.827C2737.97 628.077 2738.86 642.142 2740.54 655.146C2757.88 788.634 2843.6 862.235 2981.86 862.235C3098.1 862.235 3155.07 825.435 3187.45 783.592C3188.15 803.496 3189.21 823.223 3190.81 834.369L3192.49 845.692H3223.54C3259.72 845.692 3293.42 826.673 3311.56 795.977L3347.38 735.292V216.554H3185.85V503.7H3185.76Z" fill="#FF4A2E"></path>
<path d="M4184.85 200.011C4094.97 200.011 4026.5 232.3 3976.08 298.558C3940.69 234.777 3873.91 200.011 3785.44 200.011C3696.98 200.011 3637.09 236.723 3601.62 276.531C3600.91 258.396 3599.76 241.765 3598.08 228.231L3596.67 216.554H3441.24L3441.59 230.177C3442.83 282.015 3442.83 334.561 3442.83 385.427V845.781H3603.39V508.123C3603.39 427.977 3627.1 332.438 3739.89 332.438C3814.46 332.438 3852.32 376.138 3852.32 462.388V845.692H4012.88V501.488C4012.88 392.415 4061.44 332.438 4149.55 332.438C4237.66 332.438 4261.28 405.242 4261.28 466.281V845.781H4297.37C4333.55 845.781 4367.26 826.761 4385.39 796.065L4421.22 735.381V462.211C4421.22 225.577 4255.97 200.011 4184.85 200.011Z" fill="#FF4A2E"></path>
<path d="M4961.28 503.7C4961.28 662.311 4914.48 727.065 4799.66 727.065C4716.5 727.065 4674.39 677.173 4674.39 578.892V216.554H4512.69L4513.48 610.827C4513.48 628.077 4514.37 642.231 4516.05 655.146C4533.39 788.634 4619.11 862.235 4757.37 862.235C4873.7 862.235 4930.58 825.434 4962.96 783.504C4963.66 803.496 4964.73 823.135 4966.32 834.281L4968 845.604H4999.05C5035.23 845.604 5068.93 826.585 5087.07 795.888L5122.9 735.204V216.554H4961.36V503.7H4961.28Z" fill="#FF4A2E"></path>
<path d="M1934.92 678.5V424.084C1934.92 275.381 1835.66 199.923 1639.81 199.923C1390.53 199.923 1351.16 343.054 1345.76 404.623L1344.53 419.042H1504.73L1507.03 408.692C1516.32 367.204 1535.07 322.884 1640.78 322.884C1760.74 322.884 1776.13 378.792 1776.13 427.534V443.104H1644.23C1419.72 443.104 1310.56 512.281 1310.56 654.615C1310.56 750.331 1376.37 862.146 1561.79 862.146C1662.99 862.146 1736.23 837.288 1780.2 788.192C1781.35 805.531 1783.21 823.754 1786.04 835.431L1788.51 845.604H1808.95C1845.13 845.604 1878.83 826.584 1896.97 795.888L1935.71 730.338V726.534C1935.27 710.434 1935.01 693.981 1935.01 678.411L1934.92 678.5ZM1776.13 559.607V568.631C1776.13 679.296 1714.56 735.469 1593.1 735.469C1515.79 735.469 1469.61 702.738 1469.61 647.892C1469.61 604.104 1490.75 559.254 1647.24 559.254C1714.03 559.254 1753.93 559.254 1776.13 559.519V559.607Z" fill="#FF4A2E"></path>
<path d="M5499.48 344.381C5535.66 344.381 5569.36 325.362 5587.5 294.665L5633.59 216.642H5469.31V26.627H5307.07V216.642H5187.47V344.381H5307.07V661.692C5307.07 796.242 5361.21 851.177 5494.44 851.177C5522.48 851.177 5548.66 836.404 5562.73 812.519L5622.17 711.85L5592.19 718.662C5579.36 721.581 5561.58 722.996 5537.61 722.996C5490.28 722.996 5469.22 711.408 5469.22 642.585V344.469H5499.39L5499.48 344.381Z" fill="#FF4A2E"></path>
<path d="M6297.84 724.5C6297.49 708.4 6297.22 691.946 6297.22 676.377V421.961C6297.22 273.258 6197.97 197.8 6002.12 197.8C5752.74 197.8 5713.47 340.931 5708.07 402.5L5706.83 416.919H5867.04L5869.34 406.569C5878.62 365.081 5897.38 320.761 6003.09 320.761C6123.04 320.761 6138.44 376.669 6138.44 425.411V440.981H6006.54C5782.03 440.981 5672.86 510.158 5672.86 652.492C5672.86 748.208 5738.68 860.023 5924.09 860.023C6025.29 860.023 6098.54 835.165 6142.42 786.069C6143.57 803.408 6145.43 821.631 6148.26 833.307L6150.73 843.481H6171.17C6207.35 843.481 6241.05 824.461 6259.19 793.765L6297.93 728.215V724.411L6297.84 724.5ZM6138.44 557.484V566.508C6138.44 677.173 6076.87 733.346 5955.41 733.346C5878.09 733.346 5831.92 700.615 5831.92 645.769C5831.92 601.981 5853.06 557.131 6009.55 557.131C6076.34 557.131 6116.23 557.131 6138.44 557.396V557.484Z" fill="#FF4A2E"></path>
</g>
<defs>
<clipPath id="clip0_513_141">
<rect width="6297.93" height="1035" fill="white"></rect>
</clipPath>
</defs>
</svg>
